# xmcd
#
# Track frame offsets:
#	150
#	13038
#	26632
#	44862
#	57941
#	71714
#	81258
#	90264
#	103061
#	113107
#	131110
#	142835
#
# Disc length: 2089 seconds
#
# Revision: 1
# Processed by: cddbd v1.5.2PL0 Copyright (c) Steve Scherf et al.
# Submitted via: audiograbber 1.83.01
#
DISCID=a508270c
DTITLE=Maria Boyle - Welcome
DYEAR=2004
DGENRE=
TTITLE0=I've Got A Notion
TTITLE1=Home Sweet Home
TTITLE2=Children Of The City
TTITLE3=Yellow Pages Under Blue
TTITLE4=Where Do I Go From Here?
TTITLE5=Sticks and Stones
TTITLE6=I Love You Honey
TTITLE7=Girl From Donegal
TTITLE8=Dance With The One That Brought You
TTITLE9=Flower Of Scotland
TTITLE10=Coastline Of Galway
TTITLE11=Candy Coated Kisses
EXTD=
EXTT0=
EXTT1=
EXTT2=
EXTT3=
EXTT4=
EXTT5=
EXTT6=
EXTT7=
EXTT8=
EXTT9=
EXTT10=
EXTT11=
PLAYORDER=
